<svg width="165" height="76" viewBox="0 0 165 76" fill="none" xmlns="http://www.w3.org/2000/svg">
<path d="M0 0V56.5645H11.9592V9.77726H20.0241C22.3441 9.77726 24.259 10.1731 25.7689 10.9649C27.2787 11.7382 28.4019 12.8338 29.1385 14.2516C29.6565 15.2118 29.9967 16.2847 30.1593 17.4703C33.7693 17.4703 39.4027 17.3372 42.5891 18.1868C42.4532 14.8569 41.6383 11.8286 40.1862 9.22487C38.6027 6.33404 36.3011 4.07846 33.2814 2.45813C30.2616 0.819375 26.6067 0 22.3165 0H0Z" fill="#534FEB"/>
<path d="M27.6871 37.6996C29.6792 37.3007 31.4887 36.675 33.1156 35.8223C35.1065 34.7852 36.7925 33.4817 38.1736 31.912C37.6472 31.694 36.3786 31.2579 35.5155 31.2579H27.6871V37.6996Z" fill="#534FEB"/>
<path d="M13.7959 76.0086V19.4441H36.1124C40.4026 19.4441 44.0576 20.2635 47.0773 21.9023C50.097 23.5226 52.3986 25.7782 53.9821 28.669C55.5841 31.5414 56.385 34.8558 56.385 38.612C56.385 42.3682 55.5749 45.6826 53.9545 48.555C52.3342 51.4274 49.9865 53.6645 46.9116 55.2665C43.855 56.8684 40.154 57.6694 35.8086 57.6694H21.5846V48.0854H33.8752C36.1768 48.0854 38.0734 47.6896 39.5648 46.8978C41.0747 46.0876 42.1979 44.9737 42.9344 43.5559C43.6893 42.1196 44.0668 40.4717 44.0668 38.612C44.0668 36.7339 43.6893 35.0951 42.9344 33.6957C42.1979 32.2779 41.0747 31.1824 39.5648 30.409C38.055 29.6173 36.14 29.2214 33.82 29.2214H25.7551V76.0086H13.7959Z" fill="#534FEB"/>
<path d="M72.1089 45.6512V27.7375H76.4386V42.1349H83.891V45.6512H72.1089ZM89.9198 45.8786C89.0626 45.8786 88.3016 45.7357 87.6368 45.45C86.9779 45.1584 86.456 44.7211 86.0711 44.1379C85.6921 43.549 85.5026 42.8113 85.5026 41.925C85.5026 41.1786 85.6338 40.5488 85.8962 40.0357C86.1586 39.5225 86.5202 39.1056 86.9808 38.7848C87.4415 38.4641 87.9721 38.2221 88.5728 38.0589C89.1734 37.8898 89.8148 37.776 90.4971 37.7177C91.261 37.6478 91.8762 37.5749 92.3427 37.4991C92.8092 37.4174 93.1474 37.3037 93.3573 37.1579C93.5731 37.0063 93.6809 36.7935 93.6809 36.5194V36.4757C93.6809 36.0267 93.5264 35.6797 93.2174 35.4348C92.9083 35.1899 92.4914 35.0674 91.9666 35.0674C91.4009 35.0674 90.9461 35.1899 90.602 35.4348C90.258 35.6797 90.0393 36.0179 89.946 36.4494L86.0012 36.3095C86.1178 35.4931 86.4181 34.7642 86.9021 34.1228C87.3919 33.4755 88.0625 32.9682 88.9139 32.6008C89.7711 32.2276 90.8003 32.041 92.0015 32.041C92.8587 32.041 93.6489 32.143 94.3719 32.3471C95.095 32.5454 95.7248 32.837 96.2613 33.2218C96.7978 33.6009 97.2118 34.0674 97.5033 34.6213C97.8007 35.1753 97.9494 35.808 97.9494 36.5194V45.6512H93.9259V43.7793H93.8209C93.5818 44.2342 93.2757 44.619 92.9025 44.9339C92.5351 45.2488 92.1007 45.485 91.5992 45.6424C91.1035 45.7999 90.5437 45.8786 89.9198 45.8786ZM91.2406 43.0796C91.7012 43.0796 92.1153 42.9863 92.4826 42.7997C92.8558 42.6131 93.1532 42.3565 93.3748 42.0299C93.5964 41.6976 93.7072 41.3127 93.7072 40.8754V39.5983C93.5847 39.6625 93.436 39.7208 93.2611 39.7732C93.092 39.8257 92.9054 39.8753 92.7013 39.9219C92.4972 39.9686 92.2873 40.0094 92.0715 40.0444C91.8558 40.0794 91.6487 40.1115 91.4505 40.1406C91.0481 40.2048 90.7041 40.3039 90.4184 40.438C90.1385 40.5721 89.9227 40.7471 89.7711 40.9628C89.6253 41.1727 89.5524 41.4235 89.5524 41.7151C89.5524 42.1582 89.7099 42.4964 90.0247 42.7297C90.3455 42.9629 90.7507 43.0796 91.2406 43.0796ZM100.6 45.6512V43.2108L106.828 35.6272V35.5398H100.818V32.2159H111.927V34.8925L106.154 42.2399V42.3273H112.137V45.6512H100.6ZM117.516 50.6894C117.003 50.6894 116.519 50.6485 116.064 50.5669C115.609 50.4911 115.219 50.3891 114.892 50.2608L115.837 47.1556C116.257 47.2956 116.636 47.3772 116.974 47.4005C117.318 47.4239 117.612 47.3685 117.857 47.2343C118.108 47.1061 118.301 46.8757 118.435 46.5433L118.601 46.141L113.825 32.2159H118.303L120.779 41.8025H120.919L123.429 32.2159H127.934L122.869 46.937C122.624 47.6717 122.277 48.319 121.828 48.8788C121.385 49.4444 120.811 49.8876 120.105 50.2083C119.406 50.529 118.543 50.6894 117.516 50.6894ZM129.574 45.6512V27.7375H133.904V34.9275H140.962V27.7375H145.283V45.6512H140.962V38.4525H133.904V45.6512H129.574ZM147.999 45.6512V27.7375H155.399C156.74 27.7375 157.898 27.9795 158.872 28.4635C159.851 28.9417 160.606 29.6298 161.137 30.5278C161.668 31.42 161.933 32.4783 161.933 33.7029C161.933 34.945 161.662 36.0004 161.119 36.8693C160.577 37.7323 159.807 38.3912 158.81 38.8461C157.813 39.2951 156.632 39.5196 155.268 39.5196H150.588V36.1083H154.463C155.116 36.1083 155.661 36.0237 156.099 35.8546C156.542 35.6797 156.877 35.4173 157.105 35.0674C157.332 34.7117 157.446 34.2569 157.446 33.7029C157.446 33.1489 157.332 32.6912 157.105 32.3296C156.877 31.9623 156.542 31.6882 156.099 31.5074C155.656 31.3208 155.11 31.2275 154.463 31.2275H152.329V45.6512H147.999ZM158.084 37.4641L162.545 45.6512H157.822L153.448 37.4641H158.084Z" fill="black"/>
<path d="M72.3146 57.2786H71.9855L73.2364 53.8398H73.5723L74.8232 57.2786H74.4941L73.4161 54.2479H73.3926L72.3146 57.2786ZM72.5514 55.9605H74.2573V56.2426H72.5514V55.9605ZM79.135 57.2786L79.7059 53.8398H80.8678C81.1365 53.8398 81.3486 53.888 81.5042 53.9842C81.6609 54.0805 81.7667 54.2109 81.8216 54.3755C81.8775 54.54 81.8887 54.7242 81.8551 54.9279C81.8216 55.1294 81.7494 55.313 81.6385 55.4786C81.5288 55.6443 81.38 55.7764 81.1919 55.8749C81.005 55.9734 80.7783 56.0227 80.5119 56.0227H79.679L79.7395 55.6533H80.5589C80.7425 55.6533 80.8958 55.6214 81.019 55.5576C81.1421 55.4937 81.2384 55.407 81.3078 55.2973C81.3772 55.1876 81.4231 55.0645 81.4455 54.9279C81.4678 54.7891 81.4622 54.666 81.4287 54.5585C81.3962 54.4499 81.3285 54.3648 81.2255 54.3033C81.1236 54.2406 80.9798 54.2092 80.794 54.2092H80.0619L79.5514 57.2786H79.135ZM84.4388 57.3324C84.2015 57.3324 84.0028 57.2758 83.8427 57.1628C83.6827 57.0497 83.5696 56.8913 83.5036 56.6876C83.4386 56.4839 83.428 56.2465 83.4717 55.9756C83.5142 55.7115 83.5987 55.4814 83.7252 55.2855C83.8528 55.0885 84.0112 54.9363 84.2004 54.8288C84.3907 54.7202 84.6 54.666 84.8284 54.666C85.0657 54.666 85.2638 54.723 85.4228 54.8372C85.5828 54.9503 85.6959 55.1092 85.7619 55.3141C85.828 55.5178 85.8392 55.7562 85.7955 56.0294C85.753 56.2913 85.6674 56.5202 85.5386 56.7161C85.411 56.9109 85.2526 57.0626 85.0634 57.1712C84.8754 57.2786 84.6672 57.3324 84.4388 57.3324ZM84.4455 56.9764C84.6269 56.9764 84.7841 56.9299 84.9174 56.837C85.0517 56.7441 85.1603 56.6215 85.2431 56.4693C85.3271 56.3171 85.3836 56.1525 85.4127 55.9756C85.4396 55.8077 85.4384 55.6516 85.4093 55.5072C85.3802 55.3617 85.3181 55.2447 85.223 55.1563C85.1278 55.0667 84.994 55.0219 84.8216 55.0219C84.6403 55.0219 84.4819 55.0689 84.3465 55.163C84.2121 55.257 84.1036 55.3807 84.0207 55.534C83.9379 55.6874 83.8825 55.8525 83.8545 56.0294C83.8276 56.1973 83.8282 56.3534 83.8562 56.4978C83.8853 56.6411 83.9474 56.757 84.0426 56.8454C84.1388 56.9327 84.2731 56.9764 84.4455 56.9764ZM89.6822 55.2771L89.306 55.3779C89.2926 55.3174 89.2691 55.2592 89.2355 55.2033C89.2031 55.1462 89.1527 55.0997 89.0844 55.0639C89.0172 55.027 88.9255 55.0085 88.809 55.0085C88.6512 55.0085 88.5141 55.0449 88.3977 55.1176C88.2812 55.1893 88.2146 55.2805 88.1978 55.3913C88.1811 55.4887 88.2034 55.5665 88.265 55.6247C88.3266 55.6829 88.4296 55.7305 88.574 55.7674L88.9434 55.8615C89.165 55.9186 89.3228 56.0042 89.4169 56.1184C89.512 56.2314 89.5445 56.3786 89.5143 56.56C89.4896 56.7077 89.4253 56.8398 89.3212 56.9562C89.2171 57.0727 89.0838 57.1644 88.9215 57.2316C88.7592 57.2988 88.5784 57.3324 88.3792 57.3324C88.1139 57.3324 87.9046 57.2753 87.7512 57.1611C87.5979 57.0458 87.5161 56.879 87.5061 56.6607L87.9023 56.5667C87.9124 56.7044 87.9617 56.8085 88.0501 56.879C88.1396 56.9484 88.265 56.9831 88.4262 56.9831C88.6109 56.9831 88.7648 56.9439 88.888 56.8656C89.0111 56.7861 89.081 56.6909 89.0978 56.5801C89.1146 56.4894 89.0967 56.4139 89.0441 56.3534C88.9926 56.293 88.9031 56.2477 88.7755 56.2174L88.3658 56.1167C88.1374 56.0596 87.9773 55.9723 87.8855 55.8548C87.7949 55.7372 87.7646 55.5895 87.7949 55.4115C87.8195 55.266 87.8822 55.1372 87.9829 55.0253C88.0848 54.9133 88.2124 54.8255 88.3658 54.7617C88.5202 54.6979 88.6881 54.666 88.8695 54.666C89.1247 54.666 89.3156 54.7219 89.4421 54.8339C89.5685 54.9447 89.6486 55.0924 89.6822 55.2771ZM93.4765 55.2771L93.1003 55.3779C93.0869 55.3174 93.0634 55.2592 93.0298 55.2033C92.9974 55.1462 92.947 55.0997 92.8787 55.0639C92.8115 55.027 92.7197 55.0085 92.6033 55.0085C92.4455 55.0085 92.3084 55.0449 92.1919 55.1176C92.0755 55.1893 92.0089 55.2805 91.9921 55.3913C91.9753 55.4887 91.9977 55.5665 92.0593 55.6247C92.1209 55.6829 92.2239 55.7305 92.3683 55.7674L92.7377 55.8615C92.9593 55.9186 93.1171 56.0042 93.2112 56.1184C93.3063 56.2314 93.3388 56.3786 93.3085 56.56C93.2839 56.7077 93.2196 56.8398 93.1154 56.9562C93.0113 57.0727 92.8781 57.1644 92.7158 57.2316C92.5535 57.2988 92.3727 57.3324 92.1735 57.3324C91.9082 57.3324 91.6989 57.2753 91.5455 57.1611C91.3921 57.0458 91.3104 56.879 91.3004 56.6607L91.6966 56.5667C91.7067 56.7044 91.7559 56.8085 91.8444 56.879C91.9339 56.9484 92.0593 56.9831 92.2205 56.9831C92.4052 56.9831 92.5591 56.9439 92.6822 56.8656C92.8054 56.7861 92.8753 56.6909 92.8921 56.5801C92.9089 56.4894 92.891 56.4139 92.8384 56.3534C92.7869 56.293 92.6974 56.2477 92.5697 56.2174L92.16 56.1167C91.9317 56.0596 91.7716 55.9723 91.6798 55.8548C91.5892 55.7372 91.5589 55.5895 91.5892 55.4115C91.6138 55.266 91.6765 55.1372 91.7772 55.0253C91.8791 54.9133 92.0067 54.8255 92.16 54.7617C92.3145 54.6979 92.4824 54.666 92.6638 54.666C92.919 54.666 93.1099 54.7219 93.2363 54.8339C93.3628 54.9447 93.4429 55.0924 93.4765 55.2771ZM96.1827 57.3324C95.9353 57.3324 95.731 57.2775 95.5698 57.1678C95.4086 57.057 95.2961 56.9025 95.2323 56.7044C95.1685 56.5051 95.1584 56.2734 95.2021 56.0092C95.2458 55.7451 95.3325 55.5122 95.4624 55.3107C95.5922 55.1081 95.754 54.9503 95.9476 54.8372C96.1413 54.723 96.354 54.666 96.5857 54.666C96.72 54.666 96.8493 54.6883 96.9735 54.7331C97.0978 54.7779 97.2053 54.8507 97.2959 54.9514C97.3866 55.051 97.4498 55.1831 97.4857 55.3477C97.5215 55.5122 97.5192 55.7148 97.479 55.9555L97.4521 56.1234H95.464L95.5178 55.7809H97.1028C97.1286 55.6354 97.1219 55.5055 97.0827 55.3913C97.0446 55.2771 96.978 55.187 96.8829 55.121C96.7888 55.0549 96.6696 55.0219 96.5252 55.0219C96.3763 55.0219 96.2375 55.0622 96.1088 55.1428C95.9801 55.2223 95.8726 55.323 95.7864 55.4451C95.7002 55.5659 95.6465 55.6891 95.6252 55.8145L95.5782 56.11C95.5446 56.3238 95.5497 56.4939 95.5933 56.6204C95.6381 56.7469 95.7159 56.8381 95.8267 56.8941C95.9375 56.949 96.0764 56.9764 96.2431 56.9764C96.3495 56.9764 96.4474 56.9618 96.537 56.9327C96.6265 56.9025 96.7066 56.8577 96.7771 56.7984C96.8476 56.738 96.9069 56.663 96.9551 56.5734L97.3178 56.6809C97.2562 56.8107 97.1694 56.9249 97.0575 57.0234C96.9467 57.1208 96.8168 57.1969 96.668 57.2518C96.5202 57.3055 96.3584 57.3324 96.1827 57.3324ZM101.356 55.2771L100.98 55.3779C100.966 55.3174 100.943 55.2592 100.909 55.2033C100.877 55.1462 100.826 55.0997 100.758 55.0639C100.691 55.027 100.599 55.0085 100.483 55.0085C100.325 55.0085 100.188 55.0449 100.071 55.1176C99.955 55.1893 99.8884 55.2805 99.8716 55.3913C99.8548 55.4887 99.8772 55.5665 99.9388 55.6247C100 55.6829 100.103 55.7305 100.248 55.7674L100.617 55.8615C100.839 55.9186 100.997 56.0042 101.091 56.1184C101.186 56.2314 101.218 56.3786 101.188 56.56C101.163 56.7077 101.099 56.8398 100.995 56.9562C100.891 57.0727 100.758 57.1644 100.595 57.2316C100.433 57.2988 100.252 57.3324 100.053 57.3324C99.7877 57.3324 99.5783 57.2753 99.425 57.1611C99.2716 57.0458 99.1899 56.879 99.1798 56.6607L99.5761 56.5667C99.5862 56.7044 99.6354 56.8085 99.7239 56.879C99.8134 56.9484 99.9388 56.9831 100.1 56.9831C100.285 56.9831 100.439 56.9439 100.562 56.8656C100.685 56.7861 100.755 56.6909 100.772 56.5801C100.788 56.4894 100.77 56.4139 100.718 56.3534C100.666 56.293 100.577 56.2477 100.449 56.2174L100.04 56.1167C99.8112 56.0596 99.6511 55.9723 99.5593 55.8548C99.4686 55.7372 99.4384 55.5895 99.4686 55.4115C99.4933 55.266 99.556 55.1372 99.6567 55.0253C99.7586 54.9133 99.8862 54.8255 100.04 54.7617C100.194 54.6979 100.362 54.666 100.543 54.666C100.798 54.666 100.989 54.7219 101.116 54.8339C101.242 54.9447 101.322 55.0924 101.356 55.2771ZM102.988 57.2786L103.417 54.6995H103.814L103.384 57.2786H102.988ZM103.736 54.263C103.659 54.263 103.593 54.2367 103.537 54.1841C103.482 54.1314 103.454 54.0682 103.454 53.9943C103.454 53.9204 103.482 53.8572 103.537 53.8046C103.593 53.752 103.659 53.7257 103.736 53.7257C103.814 53.7257 103.88 53.752 103.935 53.8046C103.991 53.8572 104.019 53.9204 104.019 53.9943C104.019 54.0682 103.991 54.1314 103.935 54.1841C103.88 54.2367 103.814 54.263 103.736 54.263ZM107.972 54.6995L106.589 57.2786H106.186L105.662 54.6995H106.075L106.444 56.7547H106.471L107.526 54.6995H107.972ZM110.372 57.3324C110.124 57.3324 109.92 57.2775 109.759 57.1678C109.598 57.057 109.485 56.9025 109.421 56.7044C109.358 56.5051 109.347 56.2734 109.391 56.0092C109.435 55.7451 109.522 55.5122 109.651 55.3107C109.781 55.1081 109.943 54.9503 110.137 54.8372C110.33 54.723 110.543 54.666 110.775 54.666C110.909 54.666 111.038 54.6883 111.163 54.7331C111.287 54.7779 111.394 54.8507 111.485 54.9514C111.576 55.051 111.639 55.1831 111.675 55.3477C111.711 55.5122 111.708 55.7148 111.668 55.9555L111.641 56.1234H109.653L109.707 55.7809H111.292C111.318 55.6354 111.311 55.5055 111.272 55.3913C111.234 55.2771 111.167 55.187 111.072 55.121C110.978 55.0549 110.859 55.0219 110.714 55.0219C110.565 55.0219 110.427 55.0622 110.298 55.1428C110.169 55.2223 110.062 55.323 109.975 55.4451C109.889 55.5659 109.836 55.6891 109.814 55.8145L109.767 56.11C109.734 56.3238 109.739 56.4939 109.782 56.6204C109.827 56.7469 109.905 56.8381 110.016 56.8941C110.127 56.949 110.265 56.9764 110.432 56.9764C110.539 56.9764 110.636 56.9618 110.726 56.9327C110.816 56.9025 110.896 56.8577 110.966 56.7984C111.037 56.738 111.096 56.663 111.144 56.5734L111.507 56.6809C111.445 56.8107 111.358 56.9249 111.247 57.0234C111.136 57.1208 111.006 57.1969 110.857 57.2518C110.709 57.3055 110.547 57.3324 110.372 57.3324ZM116.09 57.2786L116.661 53.8398H117.823C118.091 53.8398 118.303 53.888 118.459 53.9842C118.616 54.0805 118.721 54.2109 118.776 54.3755C118.832 54.54 118.843 54.7242 118.81 54.9279C118.776 55.1294 118.704 55.313 118.593 55.4786C118.484 55.6443 118.335 55.7764 118.147 55.8749C117.96 55.9734 117.733 56.0227 117.467 56.0227H116.634L116.694 55.6533H117.514C117.697 55.6533 117.851 55.6214 117.974 55.5576C118.097 55.4937 118.193 55.407 118.263 55.2973C118.332 55.1876 118.378 55.0645 118.4 54.9279C118.423 54.7891 118.417 54.666 118.383 54.5585C118.351 54.4499 118.283 54.3648 118.18 54.3033C118.078 54.2406 117.935 54.2092 117.749 54.2092H117.017L116.506 57.2786H116.09ZM121.109 57.3391C120.946 57.3391 120.802 57.3083 120.679 57.2467C120.556 57.184 120.465 57.0939 120.405 56.9764C120.346 56.8577 120.33 56.7144 120.357 56.5465C120.382 56.3988 120.432 56.279 120.506 56.1872C120.58 56.0943 120.67 56.0215 120.775 55.9689C120.881 55.9152 120.995 55.8755 121.117 55.8497C121.241 55.8229 121.363 55.8021 121.485 55.7876C121.644 55.7674 121.773 55.7518 121.873 55.7406C121.973 55.7294 122.048 55.7109 122.098 55.6852C122.148 55.6594 122.179 55.6152 122.19 55.5525V55.5391C122.217 55.3745 122.195 55.2464 122.125 55.1546C122.054 55.0617 121.928 55.0152 121.747 55.0152C121.559 55.0152 121.402 55.0566 121.275 55.1395C121.149 55.2223 121.055 55.3107 120.995 55.4048L120.646 55.2704C120.737 55.1137 120.847 54.9917 120.975 54.9044C121.102 54.816 121.236 54.7544 121.376 54.7197C121.516 54.6839 121.651 54.666 121.781 54.666C121.863 54.666 121.957 54.676 122.061 54.6962C122.165 54.7152 122.263 54.7549 122.353 54.8154C122.445 54.8758 122.514 54.9671 122.56 55.0891C122.607 55.2111 122.613 55.3745 122.58 55.5794L122.298 57.2786H121.902L121.962 56.9294H121.942C121.906 56.9853 121.851 57.0452 121.777 57.109C121.704 57.1728 121.612 57.2271 121.5 57.2719C121.389 57.3167 121.259 57.3391 121.109 57.3391ZM121.223 56.9831C121.38 56.9831 121.517 56.9523 121.635 56.8908C121.753 56.8292 121.848 56.7497 121.92 56.6523C121.993 56.5549 122.038 56.4525 122.056 56.345L122.116 55.9824C122.096 56.0025 122.057 56.021 121.997 56.0378C121.938 56.0534 121.871 56.0674 121.796 56.0798C121.722 56.0909 121.65 56.101 121.579 56.11C121.51 56.1178 121.454 56.1245 121.411 56.1301C121.306 56.1436 121.206 56.1654 121.111 56.1956C121.017 56.2247 120.937 56.2689 120.872 56.3283C120.808 56.3865 120.769 56.4659 120.753 56.5667C120.73 56.7044 120.763 56.8085 120.852 56.879C120.942 56.9484 121.065 56.9831 121.223 56.9831ZM124.996 55.7271L124.741 57.2786H124.345L124.775 54.6995H125.158L125.09 55.1025H125.124C125.205 54.9716 125.314 54.8663 125.451 54.7869C125.589 54.7063 125.755 54.666 125.95 54.666C126.123 54.666 126.268 54.7018 126.387 54.7734C126.507 54.8439 126.591 54.9514 126.64 55.0958C126.691 55.2391 126.698 55.4204 126.662 55.6398L126.387 57.2786H125.99L126.259 55.6667C126.293 55.4652 126.266 55.3074 126.18 55.1932C126.095 55.079 125.96 55.0219 125.776 55.0219C125.648 55.0219 125.53 55.0493 125.421 55.1042C125.314 55.159 125.223 55.2391 125.148 55.3443C125.074 55.4495 125.023 55.5771 124.996 55.7271ZM129.405 57.3324C129.189 57.3324 129.008 57.2781 128.861 57.1695C128.715 57.0598 128.611 56.9053 128.551 56.7061C128.491 56.5057 128.484 56.2689 128.529 55.9958C128.575 55.7249 128.66 55.4898 128.786 55.2906C128.912 55.0913 129.067 54.9374 129.251 54.8288C129.434 54.7202 129.635 54.666 129.852 54.666C130.02 54.666 130.148 54.6939 130.236 54.7499C130.326 54.8048 130.391 54.8674 130.431 54.938C130.472 55.0074 130.502 55.0645 130.524 55.1092H130.557L130.769 53.8398H131.165L130.594 57.2786H130.211L130.278 56.8824H130.231C130.194 56.9294 130.143 56.9887 130.077 57.0603C130.011 57.1309 129.924 57.1941 129.815 57.2501C129.708 57.3049 129.571 57.3324 129.405 57.3324ZM129.503 56.9764C129.662 56.9764 129.804 56.935 129.929 56.8521C130.056 56.7682 130.161 56.6523 130.245 56.5046C130.329 56.3557 130.387 56.1839 130.419 55.9891C130.452 55.7965 130.451 55.6281 130.416 55.4837C130.381 55.3382 130.315 55.2251 130.216 55.1445C130.118 55.0628 129.987 55.0219 129.825 55.0219C129.658 55.0219 129.513 55.065 129.39 55.1512C129.267 55.2363 129.167 55.3521 129.09 55.4988C129.012 55.6443 128.959 55.8077 128.928 55.9891C128.898 56.1727 128.898 56.3395 128.927 56.4894C128.956 56.6383 129.017 56.757 129.111 56.8454C129.207 56.9327 129.337 56.9764 129.503 56.9764ZM133.448 57.3391C133.284 57.3391 133.141 57.3083 133.018 57.2467C132.895 57.184 132.803 57.0939 132.744 56.9764C132.685 56.8577 132.669 56.7144 132.695 56.5465C132.721 56.3988 132.771 56.279 132.845 56.1872C132.919 56.0943 133.008 56.0215 133.114 55.9689C133.22 55.9152 133.334 55.8755 133.456 55.8497C133.579 55.8229 133.702 55.8021 133.824 55.7876C133.983 55.7674 134.112 55.7518 134.212 55.7406C134.311 55.7294 134.386 55.7109 134.437 55.6852C134.487 55.6594 134.518 55.6152 134.529 55.5525V55.5391C134.556 55.3745 134.534 55.2464 134.464 55.1546C134.393 55.0617 134.267 55.0152 134.086 55.0152C133.898 55.0152 133.74 55.0566 133.614 55.1395C133.487 55.2223 133.394 55.3107 133.333 55.4048L132.984 55.2704C133.076 55.1137 133.186 54.9917 133.313 54.9044C133.441 54.816 133.575 54.7544 133.715 54.7197C133.855 54.6839 133.989 54.666 134.119 54.666C134.202 54.666 134.296 54.676 134.4 54.6962C134.504 54.7152 134.601 54.7549 134.692 54.8154C134.784 54.8758 134.853 54.9671 134.898 55.0891C134.945 55.2111 134.952 55.3745 134.919 55.5794L134.636 57.2786H134.24L134.301 56.9294H134.28C134.245 56.9853 134.19 57.0452 134.116 57.109C134.043 57.1728 133.951 57.2271 133.839 57.2719C133.728 57.3167 133.598 57.3391 133.448 57.3391ZM133.562 56.9831C133.719 56.9831 133.856 56.9523 133.973 56.8908C134.092 56.8292 134.187 56.7497 134.259 56.6523C134.331 56.5549 134.377 56.4525 134.395 56.345L134.455 55.9824C134.435 56.0025 134.395 56.021 134.336 56.0378C134.277 56.0534 134.209 56.0674 134.134 56.0798C134.061 56.0909 133.988 56.101 133.918 56.11C133.848 56.1178 133.792 56.1245 133.75 56.1301C133.645 56.1436 133.544 56.1654 133.449 56.1956C133.355 56.2247 133.276 56.2689 133.211 56.3283C133.147 56.3865 133.107 56.4659 133.092 56.5667C133.068 56.7044 133.101 56.8085 133.191 56.879C133.28 56.9484 133.404 56.9831 133.562 56.9831ZM139.584 58.2458V54.6995H139.875V55.1915H139.91C139.946 55.1143 139.995 55.0354 140.058 54.9548C140.12 54.873 140.203 54.8042 140.306 54.7482C140.41 54.6923 140.541 54.6643 140.699 54.6643C140.912 54.6643 141.098 54.7202 141.257 54.8322C141.417 54.943 141.541 55.0986 141.629 55.299C141.719 55.4982 141.764 55.7305 141.764 55.9958C141.764 56.2622 141.719 56.4956 141.629 56.696C141.541 56.8963 141.417 57.0525 141.257 57.1644C141.098 57.2764 140.913 57.3324 140.703 57.3324C140.547 57.3324 140.417 57.3044 140.311 57.2484C140.207 57.1924 140.123 57.1236 140.058 57.0419C139.994 56.959 139.945 56.8784 139.91 56.8001H139.883V58.2458H139.584ZM139.88 55.9908C139.88 56.199 139.911 56.3837 139.972 56.5449C140.035 56.7049 140.124 56.8309 140.241 56.9227C140.358 57.0133 140.5 57.0587 140.667 57.0587C140.839 57.0587 140.983 57.0116 141.1 56.9176C141.219 56.8225 141.309 56.6943 141.371 56.5331C141.433 56.3719 141.465 56.1911 141.465 55.9908C141.465 55.7926 141.434 55.6141 141.372 55.4551C141.312 55.2962 141.222 55.1702 141.104 55.0773C140.985 54.9833 140.84 54.9363 140.667 54.9363C140.499 54.9363 140.357 54.9816 140.239 55.0723C140.122 55.1618 140.032 55.2861 139.97 55.4451C139.91 55.6029 139.88 55.7848 139.88 55.9908ZM143.743 57.2786V54.6995H144.034V55.0958H144.056C144.107 54.966 144.197 54.8613 144.324 54.7818C144.453 54.7012 144.599 54.6609 144.761 54.6609C144.785 54.6609 144.813 54.6615 144.843 54.6626C144.873 54.6637 144.899 54.6648 144.919 54.666V54.9699C144.905 54.9676 144.882 54.9643 144.848 54.9598C144.815 54.9553 144.778 54.9531 144.739 54.9531C144.605 54.9531 144.485 54.9816 144.38 55.0387C144.276 55.0947 144.193 55.1725 144.133 55.2721C144.072 55.3717 144.042 55.4854 144.042 55.613V57.2786H143.743ZM147.677 57.3324C147.454 57.3324 147.257 57.2758 147.086 57.1628C146.915 57.0497 146.782 56.8936 146.686 56.6943C146.59 56.4939 146.542 56.2628 146.542 56.0008C146.542 55.7367 146.59 55.5044 146.686 55.304C146.782 55.1025 146.915 54.9458 147.086 54.8339C147.257 54.7208 147.454 54.6643 147.677 54.6643C147.899 54.6643 148.096 54.7208 148.266 54.8339C148.436 54.9469 148.569 55.1036 148.666 55.304C148.763 55.5044 148.812 55.7367 148.812 56.0008C148.812 56.2628 148.763 56.4939 148.667 56.6943C148.571 56.8936 148.437 57.0497 148.266 57.1628C148.096 57.2758 147.899 57.3324 147.677 57.3324ZM147.677 57.0587C147.856 57.0587 148.007 57.0105 148.132 56.9143C148.256 56.818 148.35 56.6898 148.414 56.5297C148.479 56.3697 148.511 56.1934 148.511 56.0008C148.511 55.8083 148.479 55.6314 148.414 55.4702C148.35 55.309 148.256 55.1798 148.132 55.0824C148.007 54.985 147.856 54.9363 147.677 54.9363C147.499 54.9363 147.347 54.985 147.222 55.0824C147.097 55.1798 147.003 55.309 146.938 55.4702C146.874 55.6314 146.842 55.8083 146.842 56.0008C146.842 56.1934 146.874 56.3697 146.938 56.5297C147.003 56.6898 147.097 56.818 147.222 56.9143C147.346 57.0105 147.497 57.0587 147.677 57.0587ZM151.72 57.3324C151.509 57.3324 151.323 57.2764 151.164 57.1644C151.005 57.0525 150.881 56.8963 150.792 56.696C150.703 56.4956 150.659 56.2622 150.659 55.9958C150.659 55.7305 150.703 55.4982 150.792 55.299C150.881 55.0986 151.006 54.943 151.166 54.8322C151.326 54.7202 151.513 54.6643 151.725 54.6643C151.882 54.6643 152.012 54.6923 152.116 54.7482C152.221 54.8031 152.304 54.8714 152.367 54.9531C152.429 55.0348 152.478 55.1143 152.513 55.1915H152.54V53.8398H152.84V57.2786H152.548V56.8001H152.513C152.478 56.8784 152.429 56.959 152.365 57.0419C152.301 57.1236 152.217 57.1924 152.111 57.2484C152.007 57.3044 151.877 57.3324 151.72 57.3324ZM151.755 57.0587C151.922 57.0587 152.064 57.0133 152.182 56.9227C152.299 56.8309 152.389 56.7049 152.451 56.5449C152.513 56.3837 152.545 56.199 152.545 55.9908C152.545 55.7848 152.514 55.6029 152.452 55.4451C152.391 55.2861 152.301 55.1618 152.184 55.0723C152.066 54.9816 151.923 54.9363 151.755 54.9363C151.583 54.9363 151.438 54.9833 151.319 55.0773C151.201 55.1702 151.112 55.2962 151.05 55.4551C150.99 55.6141 150.96 55.7926 150.96 55.9908C150.96 56.1911 150.99 56.3719 151.052 56.5331C151.113 56.6943 151.203 56.8225 151.321 56.9176C151.439 57.0116 151.584 57.0587 151.755 57.0587ZM156.654 56.293V54.6995H156.953V57.2786H156.654V56.8505H156.631C156.57 56.9825 156.475 57.0928 156.344 57.1812C156.213 57.2685 156.053 57.3122 155.863 57.3122C155.699 57.3122 155.553 57.2764 155.425 57.2047C155.297 57.132 155.197 57.0256 155.125 56.8857C155.052 56.7458 155.015 56.574 155.015 56.3702V54.6995H155.314V56.3518C155.314 56.5533 155.374 56.7156 155.492 56.8387C155.611 56.9607 155.763 57.0217 155.949 57.0217C156.065 57.0217 156.177 56.9937 156.285 56.9378C156.392 56.8818 156.481 56.8001 156.55 56.6926C156.619 56.584 156.654 56.4508 156.654 56.293ZM160.076 57.3324C159.845 57.3324 159.644 57.2747 159.473 57.1594C159.303 57.0441 159.171 56.8863 159.077 56.6859C158.983 56.4855 158.936 56.2572 158.936 56.0008C158.936 55.7423 158.983 55.5122 159.078 55.3107C159.175 55.1092 159.308 54.9514 159.478 54.8372C159.648 54.7219 159.846 54.6643 160.071 54.6643C160.243 54.6643 160.399 54.6979 160.539 54.765C160.679 54.8311 160.794 54.9245 160.885 55.0454C160.977 55.1652 161.034 55.3051 161.058 55.4652H160.756C160.724 55.3197 160.649 55.1954 160.529 55.0924C160.41 54.9883 160.259 54.9363 160.076 54.9363C159.911 54.9363 159.766 54.9811 159.639 55.0706C159.513 55.159 159.414 55.2827 159.342 55.4417C159.271 55.5995 159.236 55.7826 159.236 55.9908C159.236 56.2001 159.271 56.3853 159.34 56.5465C159.41 56.7066 159.507 56.832 159.632 56.9227C159.759 57.0133 159.907 57.0587 160.076 57.0587C160.19 57.0587 160.294 57.0374 160.388 56.9949C160.483 56.9512 160.563 56.8896 160.626 56.8102C160.691 56.7307 160.735 56.6361 160.757 56.5264H161.06C161.037 56.682 160.982 56.8208 160.893 56.9428C160.806 57.0637 160.692 57.1588 160.553 57.2282C160.414 57.2977 160.255 57.3324 160.076 57.3324ZM164.04 54.6995V54.9598H162.809V54.6995H164.04ZM163.194 54.0816H163.494V56.6053C163.494 56.7128 163.513 56.7973 163.55 56.8588C163.587 56.9193 163.635 56.9624 163.694 56.9881C163.753 57.0128 163.817 57.0251 163.884 57.0251C163.923 57.0251 163.957 57.0228 163.985 57.0184C164.013 57.0128 164.037 57.0072 164.058 57.0016L164.122 57.2719C164.093 57.2831 164.057 57.2932 164.015 57.3021C163.972 57.3122 163.92 57.3172 163.857 57.3172C163.747 57.3172 163.642 57.2932 163.54 57.245C163.439 57.1969 163.356 57.1253 163.291 57.0301C163.226 56.935 163.194 56.8169 163.194 56.6758V54.0816Z" fill="black"/>
</svg>
